<svg id="Capa_1" enable-background="new 0 0 512 512" height="512" viewBox="0 0 512 512" width="512" xmlns="http://www.w3.org/2000/svg"><g><g><path d="m218.339 504.5h-45.173l-44.601-62.142c14.573-40.368 39.897-55.292 39.897-55.292h107.054z" fill="#fd8b9b"/><path d="m250.508 438.43 25.009-51.365h-107.054s-10.721 6.327-22.226 21.86c30.503 18.355 66.359 28.602 104.271 29.505z" fill="#e75b70"/><path d="m383.434 442.358-44.601 62.142h-120.494v-25.294c0-22.386 8.896-43.859 24.723-59.685l32.455-32.455h68.02c0-.001 25.324 14.923 39.897 55.292z" fill="#e75b70"/><path d="m173.167 453.801v50.699h-54.64c0-25.334 4.142-45.814 10.039-62.142z" fill="#fed2a4"/><path d="m393.473 504.5h-54.64v-50.699l44.601-11.444c5.897 16.329 10.039 36.809 10.039 62.143z" fill="#fed2a4"/><path d="m112.901 160.725c-42.312 0-76.612-34.3-76.612-76.612s34.3-76.613 76.612-76.613c32.396 0 60.096 20.108 71.3 48.524z" fill="#303646"/><circle cx="168.466" cy="56.024" fill="#fd8b9b" r="36.714"/><circle cx="399.099" cy="84.112" fill="#303646" r="76.612"/><circle cx="343.534" cy="56.024" fill="#fd8b9b" r="36.714"/><path d="m151.629 41.086c0-7.1 1.708-13.797 4.72-19.72-14.321 5.007-24.597 18.628-24.597 34.658 0 20.277 16.438 36.714 36.714 36.714 8.779 0 16.836-3.085 23.153-8.226-22.388-1.83-39.99-20.566-39.99-43.426z" fill="#e75b70"/><path d="m334.927 55.953c0-14.912 8.208-27.9 20.348-34.715-3.688-1.244-7.633-1.929-11.74-1.929-20.277 0-36.714 16.438-36.714 36.714s16.438 36.714 36.714 36.714c4.165 0 8.164-.703 11.896-1.981-12.227-6.789-20.504-19.827-20.504-34.803z" fill="#e75b70"/><path d="m46.238 249.256c0-115.663 94.099-209.762 209.762-209.762 115.664 0 209.762 94.099 209.762 209.762z" fill="#475066"/><circle cx="427.874" cy="249.256" fill="#ffbd86" r="46.047"/><path d="m125.901 213.443c0-67.032 30.081-127.029 77.468-167.261-90.274 23.412-157.131 105.581-157.131 203.074h82.59c-1.915-11.656-2.927-23.615-2.927-35.813z" fill="#303646"/><path d="m343.537 387.065h-68.02l-32.455 32.456c-5.249 5.249-9.717 11.13-13.37 17.449 8.64 1.007 17.421 1.53 26.309 1.53 39.938 0 77.791-10.335 109.762-29.575-11.505-15.533-22.226-21.86-22.226-21.86z" fill="#c74156"/><path d="m416.482 193.755c-7.198-20.804-26.842-34.724-48.857-34.724h-60.177c-9.861 0-19.319-3.917-26.292-10.89l-11.797-11.797c-7.378-7.378-19.34-7.378-26.718 0l-11.797 11.797c-6.973 6.973-16.43 10.89-26.292 10.89h-60.177c-22.014 0-41.659 13.919-48.857 34.724-6.017 17.391-9.287 36.063-9.287 55.501 0 93.761 76.008 159.244 169.769 159.244s169.769-65.483 169.769-159.244c0-19.438-3.27-38.11-9.287-55.501z" fill="#fed2a4"/><path d="m244.17 408.14c-70.27-36.55-118.268-110.014-118.268-194.697 0-18.278 2.25-36.028 6.463-53.002-16.901 4.026-30.991 16.393-36.846 33.314-1.163 3.361-2.221 6.771-3.174 10.225-2.623-.498-5.361-.771-8.217-.771-25.431 0-46.047 20.616-46.047 46.047s20.616 46.046 46.047 46.046c2.936 0 5.748-.287 8.436-.812 19.045 65.392 79.053 109.328 151.606 113.65z" fill="#ffbd86"/><g fill="#fd8b9b"><ellipse cx="155.583" cy="273.24" rx="37.052" ry="29.506"/><ellipse cx="356.417" cy="273.24" rx="37.052" ry="29.506"/></g><path d="m71.884 148.827 65.848-72.726-10.307-5.35-59.629 48.363z" fill="#303646"/></g><g><path d="m152.041 241.131c0 4.142 3.358 7.5 7.5 7.5s7.5-3.358 7.5-7.5c0-5.589 4.547-10.136 10.136-10.136s10.136 4.547 10.136 10.136c0 4.142 3.358 7.5 7.5 7.5s7.5-3.358 7.5-7.5c0-13.86-11.276-25.136-25.136-25.136-13.86.001-25.136 11.276-25.136 25.136z"/><path d="m309.687 241.131c0 4.142 3.358 7.5 7.5 7.5s7.5-3.358 7.5-7.5c0-5.589 4.547-10.136 10.136-10.136s10.136 4.547 10.136 10.136c0 4.142 3.358 7.5 7.5 7.5s7.5-3.358 7.5-7.5c0-13.86-11.276-25.136-25.136-25.136-13.86.001-25.136 11.276-25.136 25.136z"/><path d="m269.053 256.816c-3.295 3.782-8.053 5.95-13.053 5.95s-9.758-2.168-13.053-5.95c-2.721-3.123-7.459-3.448-10.582-.727s-3.448 7.459-.727 10.582c6.145 7.051 15.024 11.095 24.361 11.095s18.216-4.044 24.362-11.095c2.721-3.123 2.396-7.86-.727-10.582-3.122-2.72-7.859-2.395-10.581.727z"/><path d="m62.189 151.19c-10.5 20.684-17.672 43.033-21.096 66.243-6.601 8.903-10.513 19.914-10.513 31.823 0 30.726 25.982 55.324 56.76 53.436 11.979 35.61 35.85 65.281 67.696 85.316-9.442 8.491-23.779 24.817-33.52 51.794-.001.003-.002.005-.003.008-6.957 19.264-10.485 41.029-10.485 64.69 0 4.142 3.358 7.5 7.5 7.5h274.947c4.142 0 7.5-3.358 7.5-7.5 0-23.662-3.528-45.427-10.485-64.69-.001-.003-.003-.006-.004-.01-9.763-27.039-24.143-43.377-33.584-51.851 8.11-5.086 15.764-10.827 22.878-17.191 3.087-2.762 3.35-7.503.588-10.59s-7.503-3.35-10.59-.588c-9.144 8.182-19.283 15.231-30.193 21.083-50.16 26.896-116.455 27.374-167.546-.197-.067-.037-.139-.061-.208-.095-48.955-26.521-78.098-74.917-78.098-131.115 0-14.502 1.922-29.099 5.848-43.302v-.001c3.164-11.449 6.178-19.977 15.206-28.086 7.94-7.132 18.403-11.336 29.59-11.336h60.177c11.935 0 23.156-4.647 31.595-13.087l11.798-11.797c4.438-4.439 11.649-4.463 16.111 0l11.797 11.797c8.449 8.449 19.673 13.087 31.595 13.087h60.177c18.798 0 35.622 11.911 41.769 29.676.976 2.822 2.159 6.607 3.027 9.746v.001c3.99 14.44 5.848 29.077 5.848 43.302 0 33.104-10.075 63.998-29.146 89.308-2.493 3.308-1.832 8.011 1.476 10.503 3.31 2.493 8.011 1.832 10.503-1.476 10.29-13.655 18.2-28.765 23.605-44.896 30.758 1.858 56.713-22.726 56.713-53.439 0-11.909-3.912-22.92-10.513-31.823-3.424-23.209-10.596-45.559-21.096-66.242 21.03-15.871 33.4-40.463 33.4-67.079-.002-46.38-37.734-84.112-84.114-84.112-16.066 0-31.556 4.518-45.031 13.087-3.378-.829-6.903-1.278-10.533-1.278-17.28 0-32.853 10.176-40.034 25.46-15.484-3.478-31.405-5.276-47.5-5.276s-32.016 1.798-47.5 5.276c-7.181-15.285-22.754-25.46-40.034-25.46-3.63 0-7.155.449-10.533 1.278-13.478-8.569-28.967-13.087-45.033-13.087-24.297 0-47.408 10.525-63.407 28.875-2.722 3.122-2.397 7.86.725 10.582s7.859 2.398 10.582-.725c13.149-15.082 32.139-23.732 52.1-23.732 9.91 0 19.554 2.089 28.429 6.109-15.695 12.196-21.629 33.92-13.343 52.71-5.243 3.833-10.333 7.912-15.249 12.233-16.44 14.451-31.235 31.848-43.216 51.851-16.242-13.065-25.735-32.657-25.735-53.791 0-7.119 1.085-14.151 3.224-20.901 1.251-3.949-.935-8.164-4.883-9.416-3.949-1.251-8.164.935-9.416 4.883-2.604 8.218-3.925 16.775-3.925 25.433.002 26.617 12.372 51.209 33.402 67.079zm103.478 345.81h-39.512c.567-16.428 3.017-31.725 7.308-45.643.387.099 31.586 8.105 32.204 8.263zm220.178 0h-39.512v-37.38l32.204-8.263c4.291 13.918 6.74 29.214 7.308 45.643zm-128.653-81.003c29.046-.168 58.74-6.529 85.611-20.098.055-.028.112-.053.167-.081 6.202 4.788 20.042 17.445 30.366 41.388-9.33 2.394-27.237 6.988-36.367 9.331-3.317.851-5.636 3.84-5.636 7.265v43.198h-105.494v-17.794c0-39.472 27.309-57.972 31.353-63.209zm-88.215-20.102c20.275 10.277 43.179 16.95 67.89 19.228-16.368 16.809-26.028 39.576-26.028 64.083v17.794h-30.172v-43.199c0-3.424-2.319-6.414-5.636-7.265-8.598-2.206-33.128-8.5-36.362-9.33 10.228-23.649 24.066-36.425 30.308-41.311zm-123.398-146.639c0-20.785 16.608-37.903 37.359-38.529-2.892 13.065-4.207 26.049-4.207 38.529 0 13.413 1.602 26.742 4.327 38.532-20.763-.567-37.479-17.634-37.479-38.532zm420.841 0c0 20.898-16.715 37.965-37.479 38.532 2.755-11.919 4.327-25.043 4.327-38.532 0-12.794-1.388-25.83-4.208-38.529 20.572.614 37.36 17.574 37.36 38.529zm-67.321-234.256c38.109 0 69.112 31.004 69.112 69.112 0 21.134-9.493 40.726-25.735 53.792-11.192-18.691-25.637-36.399-43.215-51.851-4.916-4.322-10.006-8.401-15.249-12.234 8.327-19.082 2.238-40.603-13.343-52.71 8.876-4.02 18.52-6.109 28.43-6.109zm-55.565 11.81c19.931 0 33.947 19.557 27.731 38.356-16.528-10.394-34.245-18.45-52.856-24.037 5.175-8.691 14.679-14.319 25.125-14.319zm-175.068 0c10.447 0 19.95 5.628 25.125 14.319-18.61 5.586-36.328 13.644-52.856 24.038-6.26-19.008 7.984-38.357 27.731-38.357zm87.534 20.184c93.936 0 174.852 64.879 196.605 154.749-8.126-4.236-17.721-6.463-27.553-5.957-.347-1.094-.992-3.064-1.482-4.483-8.289-23.958-30.905-39.771-55.944-39.771h-60.177c-7.943 0-15.393-3.098-20.988-8.693l-11.797-11.797c-10.379-10.38-27.075-10.251-37.325 0l-11.797 11.797c-5.593 5.592-13.038 8.693-20.988 8.693h-60.177c-14.751 0-28.824 5.481-39.628 15.192-9.516 8.551-14.224 17.692-17.799 29.062-9.816-.494-19.169 1.584-27.553 5.956 21.456-88.649 101.474-154.748 196.603-154.748z"/></g></g></svg>