<svg id="Capa_1" enable-background="new 0 0 612 612" viewBox="0 0 612 612" xmlns="http://www.w3.org/2000/svg"><g><g clip-rule="evenodd" fill-rule="evenodd"><path d="m315.493 229.327v-82.141l-52.898-21.892c-4.889-2.022-10.377-2.022-15.267 0-22.764 9.426-90.356 37.399-118.316 48.973-7.464 3.087-12.326 10.364-12.326 18.44v29.908c0 8.069-4.863 15.347-12.326 18.433-22.418 9.28-69.615 28.817-92.033 38.097-7.464 3.087-12.327 10.364-12.327 18.44v272.493h118.322v-264.703c0-16.145 9.725-30.7 24.646-36.873l118.322-48.973c9.772-4.051 20.755-4.051 30.527 0z"/><path d="m393.889 261.776c.645-1.982 1.75-3.798 3.246-5.295 2.495-2.495 5.88-3.898 9.406-3.898h31.784c3.532 0 6.918 1.404 9.413 3.898 2.495 2.495 3.892 5.88 3.892 9.406v36.72c0 3.526-1.397 6.912-3.892 9.406s-5.881 3.898-9.413 3.898h-3.539v254.166h177.214v-459.225c0-8.076-4.863-15.353-12.326-18.44-27.959-11.575-95.552-39.554-118.316-48.973-4.889-2.022-10.377-2.022-15.267 0-22.77 9.419-90.356 37.399-118.322 48.973-7.457 3.087-12.32 10.364-12.32 18.44v126.731zm160.324 4.111c0-3.526-1.404-6.912-3.898-9.406-2.495-2.495-5.881-3.898-9.406-3.898-9.519 0-22.271 0-31.791 0-3.526 0-6.912 1.404-9.406 3.898-2.495 2.495-3.898 5.88-3.898 9.406v36.72c0 3.526 1.404 6.912 3.898 9.406s5.881 3.898 9.406 3.898h31.791c3.526 0 6.912-1.404 9.406-3.898s3.898-5.88 3.898-9.406c0-10.789 0-25.93 0-36.72zm-102.584-118.768c0-3.526-1.397-6.912-3.892-9.406s-5.881-3.898-9.413-3.898c-9.513 0-22.265 0-31.784 0-3.526 0-6.912 1.404-9.406 3.898s-3.898 5.881-3.898 9.406v36.72c0 3.526 1.404 6.912 3.898 9.406s5.88 3.898 9.406 3.898h31.784c3.532 0 6.918-1.404 9.413-3.898s3.892-5.881 3.892-9.406c0-10.796 0-25.93 0-36.72zm102.584 0c0-3.526-1.404-6.912-3.898-9.406s-5.881-3.898-9.406-3.898c-9.519 0-22.271 0-31.791 0-3.526 0-6.912 1.404-9.406 3.898s-3.898 5.881-3.898 9.406v36.72c0 3.526 1.404 6.912 3.898 9.406s5.881 3.898 9.406 3.898h31.791c3.526 0 6.912-1.404 9.406-3.898s3.898-5.881 3.898-9.406c0-10.796 0-25.93 0-36.72z"/><path d="m414.83 305.375c0-8.069-4.863-15.347-12.326-18.433-27.959-11.575-95.552-39.554-118.316-48.973-4.889-2.029-10.377-2.029-15.267 0-22.77 9.419-90.356 37.399-118.322 48.973-7.457 3.087-12.32 10.364-12.32 18.433v264.703h276.551zm-160.371 155.042c0-3.526-1.397-6.912-3.898-9.406-2.495-2.495-5.874-3.898-9.406-3.898-9.513 0-22.265 0-31.784 0-3.526 0-6.912 1.404-9.406 3.898s-3.898 5.881-3.898 9.406v36.72c0 3.526 1.404 6.912 3.898 9.406s5.881 3.898 9.406 3.898h31.784c3.532 0 6.912-1.404 9.406-3.898 2.501-2.495 3.898-5.881 3.898-9.406 0-10.79 0-25.93 0-36.72zm102.576 0c0-3.526-1.397-6.912-3.892-9.406s-5.881-3.898-9.413-3.898c-9.513 0-22.265 0-31.784 0-3.526 0-6.912 1.404-9.406 3.898s-3.898 5.881-3.898 9.406v36.72c0 3.526 1.404 6.912 3.898 9.406s5.881 3.898 9.406 3.898h31.784c3.532 0 6.918-1.404 9.413-3.898s3.892-5.881 3.892-9.406c0-10.79 0-25.93 0-36.72zm-102.576-118.768c0-3.532-1.397-6.912-3.898-9.406-2.495-2.495-5.874-3.898-9.406-3.898-9.513 0-22.265 0-31.784 0-3.526 0-6.912 1.404-9.406 3.898s-3.898 5.874-3.898 9.406v36.713c0 3.532 1.404 6.918 3.898 9.413s5.881 3.892 9.406 3.892h31.784c3.532 0 6.912-1.397 9.406-3.892 2.501-2.495 3.898-5.881 3.898-9.413 0-10.789 0-25.923 0-36.713zm102.576 0c0-3.532-1.397-6.912-3.892-9.406s-5.881-3.898-9.413-3.898c-9.513 0-22.265 0-31.784 0-3.526 0-6.912 1.404-9.406 3.898s-3.898 5.874-3.898 9.406v36.713c0 3.532 1.404 6.918 3.898 9.413s5.881 3.892 9.406 3.892h31.784c3.532 0 6.918-1.397 9.413-3.892s3.892-5.881 3.892-9.413c0-10.789 0-25.923 0-36.713z"/></g></g><g/><g/><g/><g/><g/><g/><g/><g/><g/><g/><g/><g/><g/><g/><g/></svg>