<svg id="Layer_1" enable-background="new 0 0 500 500" viewBox="0 0 500 500" xmlns="http://www.w3.org/2000/svg"><path d="m450.852 218.378c-1.643 6.519-7.414 10.576-11.866 15.157-6.422 9.157-19.871 11.062-27.703 2.613-4.824-5.027-16.562-16.175-21.558-21.296-6.065-5.939-16.417-6.659-23.178-1.579-6.925 6.064-16.976 17.143-23.728 23.579-15.409 13.947-19.343 36.52-8.857 54.567 7.379 11.652 10.23 26.391 4.703 39.441-2.853 7.617-8.355 13.793-14.134 19.333-12.15 12.617-23.183 25.772-41.715 14.18-20.433-18.838-39.661-39.299-59.789-58.479-15.172 26.344-39.921 45.358-59.568 68.183-17.461 16.556-61.311 72.121-83.758 70.787 1.549-7.177 7.129-12.722 11.982-18.302 10.04-14.694 23.756-26.584 36.166-39.466 28.848-29.745 59.246-59.54 90.595-85.682-14.404-14.179-42.217-41.524-56.341-55.696-12.556-11.467-10.544-29.42 2.242-39.833 3.796-3.655 9.607-9.867 13.393-13.35 13.27-12.85 35.039-15.408 50.889-5.928 11.335 7.593 25.507 13.411 39.055 9.477 10.581-2.858 18.93-10.945 26.514-18.503 1.72-1.703 11.231-10.879 12.789-12.425 3.624-3.418 7.825-7.391 8.611-12.591 5.599-24.893-51.485-41.941-24.306-65.514 7.465-6.636 16.213-15.367 24.922-4.774-9.301-6.615-15.773 6.249-21.443 11.93-3.271 4.057-1.312 8.93 2.439 11.764 11.142 12.695 29.612 21.87 31.972 40.115 1.444 10.624-2.715 20.863-10.472 28.162-17.523 18.784-36.655 42.966-65.435 39.562-23.862-.204-39.127-26.718-61.337-10.708-5.239 4.182-10.89 10.755-15.788 15.371-11.562 9.751-1.883 14.678 5.397 22.447 6.875 6.945 21.211 21.047 28.233 27.939 25.609 25.347 53.954 54.131 79.397 79.362 4.665 5.549 9.907 5.237 14.471-.329 8.614-9.493 22.179-17.985 22.003-32.236.499-7.963-4.603-14.741-7.628-21.749-9.022-19.674-6.273-44.13 8.072-60.657 9.476-10.67 20.096-20.413 30.327-30.306 19.362-14.411 37.44-6.293 51.581 10.53 4.442 4.471 8.942 8.915 13.339 13.437 1.329 1.548 3.887 1.596 5.326.169 2.489-2.459 6.806-6.719 9.291-9.171 5.161-4.177.943-7.202-2.485-10.582-19.742-19.412-38.631-40.007-57.969-59.728-12.89-13.988-26.907-27.026-39.583-41.148-7.463-7.197-14.948-14.562-20.797-23.087 2.581 1.72 4.924 4.247 7.362 6.301-.151-.204-.269-.384-.426-.571-1.572-1.855.664-.073 1.517.031-.394-.98-1.961-2.267-2.624-3.346 34.002 29.008 67.937 60.233 100.413 91.554-.001.001 22.254 21.863 22.254 21.863 5.6 4.548 9.422 11.906 7.233 19.182z"/></svg>