<svg id="Layer_1" enable-background="new 0 0 512 512" viewBox="0 0 512 512" xmlns="http://www.w3.org/2000/svg"><path d="m479.313 439.826v-233.093c0-3.867-3.135-7.002-7.002-7.002h-96.631v-134.559c0-2.177-1.013-4.23-2.74-5.556-1.729-1.326-3.977-1.77-6.076-1.207l-164.495 44.135c-3.06.821-5.188 3.595-5.188 6.763v67.111l-159.307 42.744c-3.06.821-5.188 3.595-5.188 6.763v213.901h-32.683v14.004h511.994v-14.004zm-14.003-226.091v226.091h-89.63v-226.091zm-103.634-139.435v365.526h-22.109v-90.312c0-3.867-3.135-7.002-7.002-7.002h-92.269c-3.867 0-7.002 3.135-7.002 7.002v90.312h-22.109v-325.149zm-36.113 288.027h-78.265v-5.811h78.265zm-78.265 14.004h32.145v63.495h-32.145zm46.148 0h32.116v63.495h-32.116zm-246.756-145.035 150.49-40.378v248.909h-150.49zm251.971-42.052h33.903c3.867 0 7.002-3.135 7.002-7.002v-33.817c0-3.867-3.135-7.002-7.002-7.002h-33.903c-3.867 0-7.002 3.135-7.002 7.002v33.817c0 3.867 3.135 7.002 7.002 7.002zm7.002-33.818h19.899v19.813h-19.899zm-65.367 33.818h33.902c3.867 0 7.002-3.135 7.002-7.002v-33.817c0-3.867-3.135-7.002-7.002-7.002h-33.902c-3.867 0-7.002 3.135-7.002 7.002v33.817c0 3.867 3.135 7.002 7.002 7.002zm7.002-33.818h19.898v19.813h-19.898zm-7.002 92.126h33.902c3.867 0 7.002-3.135 7.002-7.002v-33.817c0-3.867-3.135-7.002-7.002-7.002h-33.902c-3.867 0-7.002 3.135-7.002 7.002v33.817c0 3.868 3.135 7.002 7.002 7.002zm7.002-33.817h19.898v19.813h-19.898zm51.363 33.817h33.903c3.867 0 7.002-3.135 7.002-7.002v-33.817c0-3.867-3.135-7.002-7.002-7.002h-33.903c-3.867 0-7.002 3.135-7.002 7.002v33.817c0 3.868 3.135 7.002 7.002 7.002zm7.002-33.817h19.899v19.813h-19.899zm-65.367 92.126h33.902c3.867 0 7.002-3.135 7.002-7.002v-33.817c0-3.867-3.135-7.002-7.002-7.002h-33.902c-3.867 0-7.002 3.135-7.002 7.002v33.817c0 3.867 3.135 7.002 7.002 7.002zm7.002-33.817h19.898v19.813h-19.898zm51.363 33.817h33.903c3.867 0 7.002-3.135 7.002-7.002v-33.817c0-3.867-3.135-7.002-7.002-7.002h-33.903c-3.867 0-7.002 3.135-7.002 7.002v33.817c0 3.867 3.135 7.002 7.002 7.002zm7.002-33.817h19.899v19.813h-19.899zm-137.594-14.004h-92.267c-3.867 0-7.002 3.135-7.002 7.002v33.817c0 3.867 3.135 7.002 7.002 7.002h92.268c3.867 0 7.002-3.135 7.002-7.002v-33.817c-.001-3.867-3.135-7.002-7.003-7.002zm-7.002 33.817h-78.263v-19.813h78.264v19.813zm7.002 24.492h-92.267c-3.867 0-7.002 3.135-7.002 7.002v33.846c0 3.867 3.135 7.002 7.002 7.002h92.268c3.867 0 7.002-3.135 7.002-7.002v-33.846c-.001-3.867-3.135-7.002-7.003-7.002zm-7.002 33.846h-78.263v-19.842h78.264v19.842zm7.002 24.463h-92.267c-3.867 0-7.002 3.135-7.002 7.002v33.846c0 3.867 3.135 7.002 7.002 7.002h92.268c3.867 0 7.002-3.135 7.002-7.002v-33.846c-.001-3.867-3.135-7.002-7.003-7.002zm-7.002 33.846h-78.263v-19.842h78.264v19.842zm232.017-138.756h54.821c3.867 0 7.002-3.135 7.002-7.002v-33.817c0-3.867-3.135-7.002-7.002-7.002h-54.821c-3.867 0-7.002 3.135-7.002 7.002v33.817c0 3.867 3.135 7.002 7.002 7.002zm7.002-33.818h40.817v19.813h-40.817zm-7.002 92.126h54.821c3.867 0 7.002-3.135 7.002-7.002v-33.817c0-3.867-3.135-7.002-7.002-7.002h-54.821c-3.867 0-7.002 3.135-7.002 7.002v33.817c0 3.868 3.135 7.002 7.002 7.002zm7.002-33.817h40.817v19.813h-40.817zm-7.002 92.126h54.821c3.867 0 7.002-3.135 7.002-7.002v-33.816c0-3.867-3.135-7.002-7.002-7.002h-54.821c-3.867 0-7.002 3.135-7.002 7.002v33.816c0 3.867 3.135 7.002 7.002 7.002zm7.002-33.816h40.817v19.813h-40.817z" fill="#fe544b"/></svg>