<svg id="Layer_1" enable-background="new 0 0 75 75" viewBox="0 0 75 75" xmlns="http://www.w3.org/2000/svg"><g id="Cinema_Location"><path d="m52.0139999 21.2465343-5.9169922 7.4492188c-.2578125.3242188-.2041016.796875.1201172 1.0537109.3256683.2591572.7986183.2025509 1.0537109-.1201172l5.9169922-7.4492188c.2578125-.3242188.2041016-.796875-.1201172-1.0537109-.3251952-.2578124-.7958984-.2041015-1.0537109.1201172z"/><path d="m48.7591171 33.0756378c.0693588.4139442.4607544.6842728.8632813.6171875l5.4794922-.9130859c.4091797-.0683594.6845703-.4550781.6171875-.8632832-.0683594-.4091797-.4599609-.6855469-.8632813-.6171875l-5.4794922.9130878c-.4091797.0683594-.6845703.4550782-.6171875.8632813z"/><path d="m43.6819687 26.3090343 1.0361328-5.1708984c.0810547-.40625-.1816406-.8017578-.5878906-.8828125s-.8017578.1816406-.8828125.5878906l-1.0361328 5.1708984c-.0810547.40625.1816406.8017578.5878906.8828125.4171409.0817929.8033981-.1908035.8828125-.5878906z"/><path d="m60.3069687 40.5736847c-.5029297-1.2265625-1.5820313-2.1269531-2.8867188-2.4091797-9.4138756-1.9244194-9.1171532-2.1831856-10.0509033-1.9046631-.0026855.0002441-.0048828-.0009766-.0076904-.0006104-.0192871.0019531-.0344238.0131836-.0531006.0166016-.3808899.1281471-10.2813606 4.3594093-10.3271484 4.3707275 1.3209114-16.0516968 2.5177994-19.4325771.5423584-24.090456-2.8120118-6.6850585-10.1933575-10.3410644-17.2039776-8.5180663-.2895737.0698977-1.4649391.2240162-3.1280518.9282227-7.4656906 3.1422814-10.9946179 11.7552222-7.8310547 19.2314452 2.1973791 5.2323017 7.0442467 7.2523365 11.3570557 9.9704609l-1.947876.3293457c-1.328125.2216797-2.453125 1.0849609-3.0087891 2.3076172l-10.7655033 23.5092773c-.0002441.0004883-.0008545.0008545-.0010986.0014648-.0008545.0015869-.0010986.003418-.0019531.005127l-.0039063.0085449c-.0010986.0025635-.0012207.0053711-.0023193.0079346-.673162 1.4571152.2085652 3.2771378 1.2894287 3.0760498 20.5188999-3.9896736 19.3686981-3.8183823 19.5517578-3.7763672 11.0736675 2.5708923 10.8575001 2.8028336 11.7197247 2.5771484 13.2476311-3.3500137 12.4027672-3.1667786 12.5664063-3.1416016 19.5629272 3.9138031 18.5158005 3.8186264 18.8583984 3.7119141 1.0036087-.3069229 1.7442703-1.7817917.9257813-3.043335zm-48.4016094 12.2531738c.8544922-.4318848 4.3164063-2.0239258 8.1311035-1.5891113.2890625.0332031.5664063.0546875.8339844.0644531 1.7180176.0618896 3.7253418-.7277832 5.1529541-2.0808105.3131981.15728 1.7250633.2973175 4.9281006 2.9997559.3688965.3109131.7680664.5657959 1.1793194.7957764-1.5009747 1.2078857-3.0190411 1.8901367-4.5230694 2.0303955-5.5789795.5241699-7.230957 5.1303711-7.635498 6.7038574l-13.3469244 2.6057128zm43.626585 8.348999c-4.988903-.9365807-5.2432404-1.2143059-5.9945068-1.0045166l-12.0009766 3.0388184v-8.9705811c2.8677979-.0089111 5.651001-.755249 7.1845703-1.2547607 5.8103447-1.8872108 9.5509872 2.2894821 10.8109131 8.19104zm-19.4954834 1.9108887c-10.4436321-2.4484634-9.9290237-2.5235023-10.6874981-2.3851318l-3.7276611.7276611c.5507813-1.6148682 2.0894775-4.5091553 6.1270752-4.8878174 2.0041504-.1884766 3.9899902-1.1513672 5.9063702-2.8551025.7670898.2498779 1.5690918.4019775 2.3817139.4815674v8.9188232zm21.0858154-1.5900879c-.3208008-1.8057861-1.6796875-7.5581055-6.1657715-9.6844482.1891327-1.1754532.8753586-1.8742676 2.1932373-1.8742676 2.6785889-.0014648 3.9923096-2.6317139 4.5181885-4.0998535l4.2421875 2.5314941 6.3656006 15.3769531zm-.0184326-21.8653564c.8212891.1777344 1.5.7421875 1.8154297 1.5136719l2.0299072 4.9035645c-1.5741196-.6899338-5.6060486-4.4813309-12.1967773-3.6240234l-.4848633-4.6965333zm-9.8326416 3.0544433-.6888428.1486816c-2.0665283.4489746-4.0610352-.6809082-4.8006592-2.5935059l5.0158691-2.1430664zm-6.8808594-1.8503418c1.0175781 2.5675049 3.7329102 4.0638428 6.5084229 3.4658203.5176849-.0355797 4.5811462-1.5412712 9.435791.8045654-.348999 1.0710449-1.3067627 3.3305664-3.1848145 3.3321533-1.9544983.001709-3.2232132 1.0954437-3.6195068 2.8592529-1.8205376-.4732933-3.4617653-.328495-5.2740479.2618408-1.9912109.6474609-8.7636719 2.5283203-12.3378887-.484375-3.1407757-2.6495132-4.7679157-3.0206184-4.8712158-3.0794678 1.2187138-1.8528709.9466667-3.1431808 1.2330322-5.2984619 2.041235 1.4040298 5.4098911 3.7211113 5.1957989 3.5738525-1.0809326.2911377-1.7916241.7681885-1.7916241 1.3101807 0 .8875732 1.8920879 1.6071777 4.2261944 1.6071777s4.2261963-.7196045 4.2261963-1.6071777c0-.8037109-1.5562744-1.4638672-3.5825195-1.5825195l.0463867-1.2590332.2406006-2.5848389c.7436142.0168688.8466835-.2234572 3.5491943-1.3189696zm-29.6478252-13.2197284c-2.8251772-6.6780567.2957277-14.4328623 7.0322266-17.2675781 6.7746925-2.8645172 14.5029087.4646254 17.2675762 7.0322266 1.0838737 2.556818.9925156 4.7870426.8212891 7.5283203-.0814171 2.0561714.2949028-7.4474831-.7960205 20.1027851-.1062126-.0635948-12.1148396-7.2534027-11.8492413-7.0944824-5.3889962-3.4749452-10.3438721-5.225258-12.4758301-10.3012715zm6.3828125 13.8125019c.3496094-.7695313 1.0566406-1.3115234 1.8925781-1.4511719l3.6802979-.6228027 4.1586914 2.4902344c-.0043716.0458984-.2647705 2.6977882-.2647705 2.7438965 0 2.8160019-2.845459 5.5753365-6.3828125 5.1591797-2.9614258-.3395996-5.6569824.385498-7.3665771 1.0323486z"/><path d="m31.8108768 25.8168468c3.2725697-8.0406132-4.8371849-16.1201897-12.8867188-12.7294922-5.4102411 2.2792635-7.6707582 8.8093529-4.6381836 13.9941406 4.1622907 7.0798589 14.5037347 6.1626378 17.5249024-1.2646484zm-5.9492187-11.3867187c6.8201466 2.7760563 6.8735638 12.3977928.1744385 15.3034668-3.7215576.6151123-7.4898682-1.4719238-8.9664307-4.9763184-1.7567139-4.1682129.1716309-8.9987793 4.2966309-10.8205566 1.5854091-.2678719 3.0828609-.0811443 4.4953613.4934082z"/><path d="m18.6233768 19.5277843 2.4931641 7.0087891c.3508358.9856796 1.634573 1.2149067 2.3076172.4238281l4.8212891-5.6611328c.678793-.7953949.2389545-2.0239792-.7851563-2.2109375l-7.3144531-1.3466797c-1.0213833-.1922836-1.8707619.7996273-1.522461 1.7861328z"/></g></svg>