<svg id="Layer_1" enable-background="new 0 0 73 73" height="512" viewBox="0 0 73 73" width="512" xmlns="http://www.w3.org/2000/svg"><g id="_x31_9"><path d="m28.1203156 36.0427284h.003418c.4125977 0 .7480469-.3330078.75-.7460938.0136719-2.78125.2382813-5.5830078.6679688-8.3261719.0639648-.4091797-.2158203-.7929688-.625-.8574219-.4101563-.0654297-.7929688.2158203-.8574219.625-.440918 2.8183594-.671875 5.6953125-.6855469 8.5507813-.0019532.4140626.3320312.7519532.746582.7539063z"/><path d="m30.3156281 22.8269081c0-1.0024319-1.6298828-1.0032787-1.6298828 0-.0000001 1.0024338 1.6298828 1.0032787 1.6298828 0z"/><path d="m48.6417999 10.5485888 2.8564453-5.7138672c.1850586-.3701172.034668-.8203125-.3354492-1.0058594-.3701172-.1835938-.8208008-.0351563-1.0063477.3359375l-2.8564453 5.7138672c-.1850586.3701172-.0351563.8203125.3354492 1.0058594.3741837.1862449.8231049.0319099 1.0063477-.3359375z"/><path d="m57.8327179 9.0564013c-.0639648-.4091797-.4467773-.6875-.8574219-.625-2.2006836.3466797-4.2929688 1.0908203-6.2182617 2.2119141-.6581268.3842812-.387455 1.3984375.3779297 1.3984375.128418 0 .2583008-.0332031.3769531-.1015625 1.7392578-1.0136719 3.7089844-1.7138672 5.6962891-2.0263672.4096679-.0644532.6889648-.4482423.6245117-.8574219z"/><path d="m56.6588898 15.7331591c-1.890625-.5498047-3.7275391-1.3007813-5.4594727-2.2333984-.3647461-.1972656-.8188477-.0595703-1.015625.3046875s-.0600586.8193359.3046875 1.015625c1.824707.9824219 3.7597656 1.7744131 5.7514648 2.3525381.9666482.2819404 1.3599473-1.1666318.4189454-1.4394522z"/><path d="m18.5408478 39.9167519c-1.5914917.0795898-2.8604746 1.3129883-3.0187998 2.8486328-.9092846 1.7458267-.0054646 3.7844276 1.500001 4.6413574 2.374157 1.3516312 4.4280815-.0877342 10.8945313-.2617188.8383789 7.3525391 1.9737549 14.5849609 3.397583 21.5061073.0717773.3486328.3789063.5986328.734375.5986328h.0102539c.3598633-.0048828.6655273-.2646484.7280273-.6191406 1.2192116-6.8692818 3.481823-13.98106 4.8543091-21.172123 11.5997696.7011986 8.0288124.5285645 11.2599487.5285645 2.6498108 0 4.1461792-3.0768738 2.5786133-5.1728516-.8978767-1.202198-2.0138435-1.2400055-2.8944092-1.3535156-.0397644-.3272133.5583038 2.863739-4.8269653-24.8227539.364975-.0105743.3886795-.0309391.4887085-.0490723.1002579.0159626.2440834.0563965.5251465.0563965 1.6194153 0 2.1917648-1.3909292 2.394043-1.5927725.9939499-1.399435.2805557-3.365325-1.3852539-3.8056641-6.8100586-1.7949219-14.3037109-2.1181641-21.6689453-.9335938-.6004639.0961914-1.1277466.4128418-1.5089111.8701172-.9182129.6816406-.7523193 2.875-.1380615 3.5935059.7027588.8220215 1.8321533.9812012 2.9537354.970459-.0032349.0087891-.0050049.0151367-.0083618.0241699-1.7336981 4.6361362-5.1221717 15.4593803-6.8695681 24.1452629zm13.5125732 24.7275428c-1.0715332-5.6879921-1.9477539-11.5617714-2.6303101-17.5163612 2.234314-.0021973 4.4741821.1086426 6.7073975.2407227-1.161354 6.0095939-2.803585 11.4632949-4.0770874 17.2756385zm17.081543-21.6054725c.4584961.0605469.8647461.2998047 1.1435547.6728516.8522072 1.1403008-.001133 2.9567604-1.5966797 2.7626953-24.02141-2.9170036-29.433075.1522179-31.034668-1.1611328-.6513443-.5341949-.6339359-1.2294617-.6557617-2.1923828-.0214844-.9130859.7192383-1.6806641 1.6513672-1.7109375 9.7636719-.3320313 19.737793.2060546 30.4921875 1.6289062zm-24.5742188-29.3222647c-1.2500324.0274734-1.4200001-1.7270393-.2104492-1.9228516 7.159668-1.1533203 14.4384766-.8398438 21.0483398.9042969.652153.1714582.9342918.9355774.5444336 1.4863281-.2281189.2356443-.5240097 1.1284781-1.3735352.9394531-6.2431411-1.3331365-13.1515998-1.8877305-20.008789-1.4072265zm3.3516236 1.9375c4.762146-.2006836 9.5437012.0585938 14.2479858.8256826.0131836.0019531.0265503.0039063.0397339.0061035l4.8297119 24.7834473c-9.0647583-1.1037598-17.607666-1.5678711-25.9588623-1.4140625.0396385-.140274 5.6638241-20.0425453 6.8414307-24.2011709z"/></g></svg>